<svg xmlns="http://www.w3.org/2000/svg" viewBox="0 0 64 64"><rect width="64" height="64" rx="14" fill="#ffffff"/><g fill="#2f8a4a"><rect x="10" y="26" width="30" height="14" rx="7"/><rect x="6" y="20" width="16" height="22"/><rect x="4" y="17" width="20" height="4"/><polygon points="34,26 35,17 32,15 42,15 39,17 40,26"/><polygon points="46,44 56,44 46,36"/><rect x="6" y="42" width="48" height="4"/></g><rect x="9" y="25" width="8" height="7" fill="#ffffff"/><g fill="#1d4a2c"><circle cx="16" cy="48" r="6"/><circle cx="30" cy="48" r="6"/><circle cx="44" cy="50" r="4"/></g><g fill="#ffffff"><circle cx="16" cy="48" r="2"/><circle cx="30" cy="48" r="2"/></g><rect x="2" y="55" width="60" height="2" fill="#c8323c"/></svg>